<mxfile host="app.diagrams.net" modified="2021-10-31T19:55:49.668Z" agent="5.0 (Windows NT 10.0; Win64; x64) AppleWebKit/537.36 (KHTML, like Gecko) Chrome/95.0.4638.54 Safari/537.36 Edg/95.0.1020.40" etag="KvN9e2WClrvvZbk-xF8g" version="15.6.3" type="github">
  <diagram id="JLLGZagkeS5XLVG089O_" name="Page-1">
    <mxGraphModel dx="1422" dy="794" grid="1" gridSize="10" guides="1" tooltips="1" connect="1" arrows="1" fold="1" page="1" pageScale="1" pageWidth="850" pageHeight="1100" math="0" shadow="0">
      <root>
        <mxCell id="0" />
        <mxCell id="1" parent="0" />
        <mxCell id="GWWweGUEQVmTGhW7d-dS-4" style="edgeStyle=orthogonalEdgeStyle;rounded=0;orthogonalLoop=1;jettySize=auto;html=1;exitX=0.5;exitY=1;exitDx=0;exitDy=0;entryX=0.5;entryY=0;entryDx=0;entryDy=0;" edge="1" parent="1" source="GWWweGUEQVmTGhW7d-dS-1" target="GWWweGUEQVmTGhW7d-dS-2">
          <mxGeometry relative="1" as="geometry" />
        </mxCell>
        <mxCell id="GWWweGUEQVmTGhW7d-dS-1" value="Initialize" style="rounded=1;whiteSpace=wrap;html=1;" vertex="1" parent="1">
          <mxGeometry x="40" y="40" width="120" height="60" as="geometry" />
        </mxCell>
        <mxCell id="GWWweGUEQVmTGhW7d-dS-5" style="edgeStyle=orthogonalEdgeStyle;rounded=0;orthogonalLoop=1;jettySize=auto;html=1;exitX=0.5;exitY=1;exitDx=0;exitDy=0;entryX=0.5;entryY=0;entryDx=0;entryDy=0;" edge="1" parent="1" source="GWWweGUEQVmTGhW7d-dS-2" target="GWWweGUEQVmTGhW7d-dS-3">
          <mxGeometry relative="1" as="geometry" />
        </mxCell>
        <mxCell id="GWWweGUEQVmTGhW7d-dS-2" value="Process" style="rounded=1;whiteSpace=wrap;html=1;" vertex="1" parent="1">
          <mxGeometry x="40" y="140" width="120" height="60" as="geometry" />
        </mxCell>
        <mxCell id="GWWweGUEQVmTGhW7d-dS-3" value="Clean Up" style="rounded=1;whiteSpace=wrap;html=1;" vertex="1" parent="1">
          <mxGeometry x="40" y="240" width="120" height="60" as="geometry" />
        </mxCell>
      </root>
    </mxGraphModel>
  </diagram>
</mxfile>
